<svg xmlns="http://www.w3.org/2000/svg" viewBox="0 0 1200 720" role="img" aria-labelledby="title desc">
  <title id="title">Assessment that supports learning</title>
  <desc id="desc">Original illustration of quizzes, projects, reflection, and feedback connected as part of a learning assessment journey.</desc>
  <rect width="1200" height="720" fill="#fffbf5"/>
  <rect x="94" y="78" width="1012" height="564" rx="36" fill="#ffffff" stroke="#e5e7eb" stroke-width="4"/>
  <path d="M178 516c86-122 185-76 286-160 105-87 189-93 302-28 88 50 169 61 258-40" fill="none" stroke="#0f766e" stroke-width="18" stroke-linecap="round"/>
  <path d="M178 516c86-122 185-76 286-160 105-87 189-93 302-28 88 50 169 61 258-40" fill="none" stroke="#f59e0b" stroke-width="6" stroke-linecap="round" stroke-dasharray="4 28"/>
  <g fill="#f5f1e8" stroke="#d6d3ca" stroke-width="3">
    <rect x="154" y="142" width="230" height="156" rx="20"/>
    <rect x="484" y="116" width="230" height="156" rx="20"/>
    <rect x="816" y="142" width="230" height="156" rx="20"/>
    <rect x="264" y="416" width="230" height="156" rx="20"/>
    <rect x="704" y="416" width="230" height="156" rx="20"/>
  </g>
  <g fill="#0f766e">
    <circle cx="178" cy="516" r="24"/>
    <circle cx="464" cy="356" r="24"/>
    <circle cx="766" cy="328" r="24"/>
    <circle cx="1024" cy="288" r="24"/>
  </g>
  <g fill="none" stroke="#0f766e" stroke-width="9" stroke-linecap="round" stroke-linejoin="round">
    <path d="M210 196h120M210 240h82"/>
    <path d="M545 174h108M545 218h76"/>
    <path d="M875 196h112M875 240h80"/>
    <path d="M320 476h112M320 520h76"/>
    <path d="M760 476h118M760 520h86"/>
  </g>
  <g fill="#f59e0b">
    <circle cx="270" cy="211" r="34" opacity=".18"/>
    <path d="M253 211l12 12 28-34" fill="none" stroke="#f59e0b" stroke-width="9" stroke-linecap="round" stroke-linejoin="round"/>
    <path d="M585 156h38v38h-38z"/>
    <circle cx="932" cy="206" r="35" opacity=".2"/>
    <path d="M913 206h38M932 187v38" stroke="#f59e0b" stroke-width="9" stroke-linecap="round"/>
    <path d="M364 463l34 34-34 34-34-34z"/>
    <circle cx="816" cy="498" r="35"/>
  </g>
  <g fill="#1f2937" font-family="Inter, Arial, sans-serif" font-size="32" font-weight="700">
    <text x="202" y="343">Quiz</text>
    <text x="526" y="317">Project</text>
    <text x="850" y="343">Feedback</text>
    <text x="304" y="616">Reflect</text>
    <text x="746" y="616">Apply</text>
  </g>
  <g fill="#64748b" font-family="Inter, Arial, sans-serif" font-size="21">
    <text x="202" y="374">check understanding</text>
    <text x="526" y="348">practice in context</text>
    <text x="850" y="374">guide the next step</text>
    <text x="304" y="647">make meaning</text>
    <text x="746" y="647">show real transfer</text>
  </g>
  <circle cx="1002" cy="164" r="42" fill="#f59e0b" opacity=".16"/>
  <circle cx="238" cy="366" r="32" fill="#0f766e" opacity=".14"/>
</svg>
