<svg xmlns="http://www.w3.org/2000/svg" viewBox="0 0 1200 720" role="img" aria-labelledby="title desc">
  <title id="title">Learner personas</title>
  <desc id="desc">Original illustration of learner persona profile cards connected to goals, challenges, and support notes.</desc>
  <rect width="1200" height="720" fill="#fffbf5"/>
  <rect x="94" y="78" width="1012" height="564" rx="36" fill="#ffffff" stroke="#e5e7eb" stroke-width="4"/>
  <path d="M181 512c116-104 219-77 319-157 110-88 190-90 303-25 82 48 154 59 241-30" fill="none" stroke="#0f766e" stroke-width="18" stroke-linecap="round"/>
  <path d="M181 512c116-104 219-77 319-157 110-88 190-90 303-25 82 48 154 59 241-30" fill="none" stroke="#f59e0b" stroke-width="6" stroke-linecap="round" stroke-dasharray="4 28"/>
  <g fill="#f5f1e8" stroke="#d6d3ca" stroke-width="3">
    <rect x="152" y="138" width="252" height="332" rx="22"/>
    <rect x="474" y="116" width="252" height="332" rx="22"/>
    <rect x="796" y="138" width="252" height="332" rx="22"/>
  </g>
  <g fill="#ffffff" stroke="#e5e7eb" stroke-width="3">
    <circle cx="278" cy="216" r="48"/>
    <circle cx="600" cy="194" r="48"/>
    <circle cx="922" cy="216" r="48"/>
  </g>
  <g fill="#0f766e">
    <circle cx="278" cy="202" r="18"/>
    <path d="M236 266c7-35 77-35 84 0"/>
    <circle cx="600" cy="180" r="18"/>
    <path d="M558 244c7-35 77-35 84 0"/>
    <circle cx="922" cy="202" r="18"/>
    <path d="M880 266c7-35 77-35 84 0"/>
  </g>
  <g fill="#1f2937" font-family="Inter, Arial, sans-serif" font-size="30" font-weight="700">
    <text x="206" y="318">Busy</text>
    <text x="206" y="354">Professional</text>
    <text x="528" y="296">New</text>
    <text x="528" y="332">Beginner</text>
    <text x="850" y="318">Confident</text>
    <text x="850" y="354">Practitioner</text>
  </g>
  <g fill="#64748b" font-family="Inter, Arial, sans-serif" font-size="20">
    <text x="206" y="394">Goal: work reports</text>
    <text x="206" y="426">Needs: short lessons</text>
    <text x="528" y="372">Goal: first success</text>
    <text x="528" y="404">Needs: examples</text>
    <text x="850" y="394">Goal: improve speed</text>
    <text x="850" y="426">Needs: feedback</text>
  </g>
  <g fill="#0f766e">
    <circle cx="181" cy="512" r="24"/>
    <circle cx="500" cy="355" r="24"/>
    <circle cx="803" cy="330" r="24"/>
    <circle cx="1044" cy="300" r="24"/>
  </g>
  <g fill="#ffffff" stroke="#0f766e" stroke-width="5">
    <rect x="206" y="512" width="186" height="74" rx="18"/>
    <rect x="506" y="512" width="186" height="74" rx="18"/>
    <rect x="806" y="512" width="186" height="74" rx="18"/>
  </g>
  <g fill="#0f766e" font-family="Inter, Arial, sans-serif" font-size="22" font-weight="700">
    <text x="248" y="558">Goals</text>
    <text x="538" y="558">Barriers</text>
    <text x="838" y="558">Support</text>
  </g>
  <g fill="#f59e0b">
    <circle cx="1001" cy="164" r="42" opacity=".18"/>
    <path d="M980 164h42M1001 143v42" stroke="#f59e0b" stroke-width="8" stroke-linecap="round"/>
    <circle cx="247" cy="102" r="28" opacity=".16"/>
    <path d="M580 184h40v40h-40z"/>
  </g>
</svg>
