<svg xmlns="http://www.w3.org/2000/svg" viewBox="0 0 1200 720" role="img" aria-labelledby="title desc">
  <title id="title">Learning Experience Design compared with Instructional Design</title>
  <desc id="desc">Original illustration comparing structured instructional design with a learner-centered experience journey.</desc>
  <rect width="1200" height="720" fill="#fffbf5"/>
  <rect x="92" y="76" width="1016" height="568" rx="36" fill="#ffffff" stroke="#e5e7eb" stroke-width="4"/>
  <rect x="150" y="138" width="360" height="404" rx="28" fill="#f5f1e8" stroke="#d6d3ca" stroke-width="3"/>
  <rect x="690" y="138" width="360" height="404" rx="28" fill="#f5f1e8" stroke="#d6d3ca" stroke-width="3"/>
  <path d="M512 340c48-46 102-46 151 0" fill="none" stroke="#0f766e" stroke-width="16" stroke-linecap="round"/>
  <path d="M512 340c48-46 102-46 151 0" fill="none" stroke="#f59e0b" stroke-width="5" stroke-linecap="round" stroke-dasharray="4 22"/>
  <g fill="none" stroke="#0f766e" stroke-width="10" stroke-linecap="round">
    <path d="M220 270h220M220 322h182M220 374h220"/>
    <path d="M760 440c70-72 135-76 218-18"/>
  </g>
  <g fill="none" stroke="#f59e0b" stroke-width="10" stroke-linecap="round">
    <path d="M760 252h220M760 304h156"/>
  </g>
  <circle cx="228" cy="203" r="43" fill="#0f766e"/>
  <path d="M208 203h40M228 183v40" stroke="#ffffff" stroke-width="10" stroke-linecap="round"/>
  <circle cx="433" cy="203" r="43" fill="#f59e0b" opacity=".18"/>
  <path d="M410 203l16 16 35-43" fill="none" stroke="#f59e0b" stroke-width="10" stroke-linecap="round" stroke-linejoin="round"/>
  <g fill="#ffffff" stroke="#0f766e" stroke-width="7">
    <circle cx="760" cy="440" r="23"/>
    <circle cx="870" cy="386" r="23"/>
    <circle cx="978" cy="422" r="23"/>
  </g>
  <g fill="#0f766e">
    <circle cx="664" cy="340" r="18"/>
    <circle cx="536" cy="340" r="18"/>
  </g>
  <g fill="#1f2937" font-family="Inter, Arial, sans-serif" font-size="34" font-weight="700">
    <text x="220" y="470">Instructional design</text>
    <text x="760" y="198">Learning experience</text>
  </g>
  <g fill="#64748b" font-family="Inter, Arial, sans-serif" font-size="22">
    <text x="220" y="505">objectives, sequence, assessment</text>
    <text x="760" y="233">journey, practice, reflection</text>
  </g>
  <g fill="#f59e0b">
    <circle cx="600" cy="281" r="12"/>
    <circle cx="600" cy="399" r="12"/>
  </g>
  <circle cx="1012" cy="174" r="38" fill="#f59e0b" opacity=".16"/>
  <circle cx="174" cy="578" r="32" fill="#0f766e" opacity=".14"/>
</svg>
