<svg xmlns="http://www.w3.org/2000/svg" viewBox="0 0 1200 720" role="img" aria-labelledby="title desc">
  <title id="title">Slide presentation and learning experience design</title>
  <desc id="desc">A calm illustration of a science slide presentation connected to active learning, feedback, and reflection touchpoints.</desc>
  <rect width="1200" height="720" fill="#FFFBF5"/>
  <rect x="96" y="96" width="1008" height="528" rx="32" fill="#FFFFFF" stroke="#E5E7EB" stroke-width="4"/>
  <rect x="154" y="142" width="568" height="350" rx="18" fill="#F5F1E8" stroke="#E5E7EB" stroke-width="3"/>
  <rect x="190" y="178" width="496" height="52" rx="12" fill="#0F766E"/>
  <text x="218" y="212" fill="#FFFFFF" font-family="Inter, Arial, sans-serif" font-size="26" font-weight="700">Grade 5 Science: Water Cycle</text>
  <circle cx="282" cy="322" r="54" fill="#F59E0B" opacity="0.9"/>
  <path d="M348 340c28-52 86-84 150-78 72 7 128 61 140 130" fill="none" stroke="#0F766E" stroke-width="16" stroke-linecap="round"/>
  <path d="M620 391l35-7-12 34" fill="none" stroke="#0F766E" stroke-width="14" stroke-linecap="round" stroke-linejoin="round"/>
  <path d="M302 424c70 42 162 46 240 8" fill="none" stroke="#115E59" stroke-width="14" stroke-linecap="round"/>
  <path d="M304 424l14 34-37-6" fill="none" stroke="#115E59" stroke-width="12" stroke-linecap="round" stroke-linejoin="round"/>
  <g fill="#64748B" font-family="Inter, Arial, sans-serif" font-size="22" font-weight="600">
    <text x="214" y="548">Slides organize content.</text>
    <text x="214" y="582">LXD designs the full journey.</text>
  </g>
  <g transform="translate(782 154)">
    <rect width="242" height="72" rx="18" fill="#ECFDF5" stroke="#99F6E4" stroke-width="3"/>
    <circle cx="42" cy="36" r="17" fill="#0F766E"/>
    <text x="76" y="44" fill="#1F2937" font-family="Inter, Arial, sans-serif" font-size="22" font-weight="700">Connect</text>
  </g>
  <g transform="translate(790 254)">
    <rect width="242" height="72" rx="18" fill="#FFFBEB" stroke="#FCD34D" stroke-width="3"/>
    <circle cx="42" cy="36" r="17" fill="#F59E0B"/>
    <text x="76" y="44" fill="#1F2937" font-family="Inter, Arial, sans-serif" font-size="22" font-weight="700">Question</text>
  </g>
  <g transform="translate(782 354)">
    <rect width="242" height="72" rx="18" fill="#F8FAFC" stroke="#CBD5E1" stroke-width="3"/>
    <circle cx="42" cy="36" r="17" fill="#64748B"/>
    <text x="76" y="44" fill="#1F2937" font-family="Inter, Arial, sans-serif" font-size="22" font-weight="700">Practice</text>
  </g>
  <g transform="translate(790 454)">
    <rect width="242" height="72" rx="18" fill="#ECFDF5" stroke="#99F6E4" stroke-width="3"/>
    <circle cx="42" cy="36" r="17" fill="#115E59"/>
    <text x="76" y="44" fill="#1F2937" font-family="Inter, Arial, sans-serif" font-size="22" font-weight="700">Reflect</text>
  </g>
  <path d="M724 318c32 0 46-31 74-31" fill="none" stroke="#0F766E" stroke-width="5" stroke-linecap="round" stroke-dasharray="10 12"/>
  <path d="M724 402c32 0 46 31 74 31" fill="none" stroke="#F59E0B" stroke-width="5" stroke-linecap="round" stroke-dasharray="10 12"/>
</svg>
